<svg xmlns="http://www.w3.org/2000/svg" width="860" height="150" viewBox="0 0 860 150" role="img" aria-labelledby="title desc"><title id="title">Eddym06 GitHub account statistics</title><desc id="desc">22 public repositories, 21 non-fork repositories, 5 stars and GitHub account created 2024. Refreshed 2026-10-03 UTC from the GitHub API.</desc><rect x="1" y="1" width="858" height="148" rx="16" fill="#101727" stroke="#26334a"/><text x="24" y="28" font-family="Consolas,monospace" font-size="10" letter-spacing="1.5" fill="#a8b5ce">ACCOUNT SNAPSHOT / VERIFIED VIA GITHUB API / 2026-10-03 UTC</text><rect x="22" y="44" width="198" height="84" rx="12" fill="#151f31" stroke="#26334a"/><rect x="22" y="44" width="3" height="84" rx="1.5" fill="#55e6df"/><text x="39" y="78" font-family="Segoe UI,Arial,sans-serif" font-size="25" font-weight="700" fill="#55e6df">22</text><text x="39" y="104" font-family="Consolas,monospace" font-size="9" letter-spacing=".4" fill="#a8b5ce">PUBLIC REPOSITORIES</text><rect x="232" y="44" width="198" height="84" rx="12" fill="#151f31" stroke="#26334a"/><rect x="232" y="44" width="3" height="84" rx="1.5" fill="#b59aff"/><text x="249" y="78" font-family="Segoe UI,Arial,sans-serif" font-size="25" font-weight="700" fill="#b59aff">21</text><text x="249" y="104" font-family="Consolas,monospace" font-size="9" letter-spacing=".4" fill="#a8b5ce">ORIGINAL REPOSITORIES</text><rect x="442" y="44" width="198" height="84" rx="12" fill="#151f31" stroke="#26334a"/><rect x="442" y="44" width="3" height="84" rx="1.5" fill="#ffba76"/><text x="459" y="78" font-family="Segoe UI,Arial,sans-serif" font-size="25" font-weight="700" fill="#ffba76">5</text><text x="459" y="104" font-family="Consolas,monospace" font-size="9" letter-spacing=".4" fill="#a8b5ce">STARS EARNED</text><rect x="652" y="44" width="198" height="84" rx="12" fill="#151f31" stroke="#26334a"/><rect x="652" y="44" width="3" height="84" rx="1.5" fill="#55e6df"/><text x="669" y="78" font-family="Segoe UI,Arial,sans-serif" font-size="25" font-weight="700" fill="#55e6df">2024</text><text x="669" y="104" font-family="Consolas,monospace" font-size="9" letter-spacing=".4" fill="#a8b5ce">GITHUB MEMBER SINCE</text></svg>
